name ./resultDataOpenSim/trcMotMarkerGrf/sub09/grf-03-04.mot
datacolumns 19
datarows 12
range 1.40400000 1.44800000
endheader

                time	     ground_force_vx	     ground_force_vy	     ground_force_vz	     ground_force_px	     ground_force_py	     ground_force_pz	   l_ground_force_vx	   l_ground_force_vy	   l_ground_force_vz	   l_ground_force_px	   l_ground_force_py	   l_ground_force_pz	     ground_torque_x	     ground_torque_y	     ground_torque_z	   l_ground_torque_x	   l_ground_torque_y	   l_ground_torque_z	
          1.40400000	        -38.04546623	        466.42194134	        -13.18948668	          0.97959878	          0.00000000	          0.12878607	          0.00000000	          0.00000000	          0.00000000	          0.00000000	          0.00000000	          0.00000000	          0.00000000	          1.16800105	          0.00000000	          0.00000000	          0.00000000	          0.00000000	
          1.40800000	        -41.70569241	        460.66733875	        -11.58827254	          0.98321736	          0.00000000	          0.12884611	          0.00000000	          0.00000000	          0.00000000	          0.00000000	          0.00000000	          0.00000000	          0.00000000	          1.49232791	          0.00000000	          0.00000000	          0.00000000	          0.00000000	
          1.41200000	        -45.18118847	        455.77386518	        -11.11037303	          0.98655081	          0.00000000	          0.12886120	          0.00000000	          0.00000000	          0.00000000	          0.00000000	          0.00000000	          0.00000000	          0.00000000	          1.76771389	          0.00000000	          0.00000000	          0.00000000	          0.00000000	
          1.41600000	        -47.18983600	        451.66956495	        -11.49542442	          0.98938550	          0.00000000	          0.12885857	          0.00000000	          0.00000000	          0.00000000	          0.00000000	          0.00000000	          0.00000000	          0.00000000	          1.93008280	          0.00000000	          0.00000000	          0.00000000	          0.00000000	
          1.42000000	        -46.87568374	        448.31606644	        -12.33669535	          0.99158505	          0.00000000	          0.12884744	          0.00000000	          0.00000000	          0.00000000	          0.00000000	          0.00000000	          0.00000000	          0.00000000	          1.94596876	          0.00000000	          0.00000000	          0.00000000	          0.00000000	
          1.42400000	        -44.05553516	        445.67843330	        -13.17899976	          0.99313327	          0.00000000	          0.12882718	          0.00000000	          0.00000000	          0.00000000	          0.00000000	          0.00000000	          0.00000000	          0.00000000	          1.82074623	          0.00000000	          0.00000000	          0.00000000	          0.00000000	
          1.42800000	        -39.24804813	        443.68730418	        -13.62018736	          0.99412836	          0.00000000	          0.12878918	          0.00000000	          0.00000000	          0.00000000	          0.00000000	          0.00000000	          0.00000000	          0.00000000	          1.59586191	          0.00000000	          0.00000000	          0.00000000	          0.00000000	
          1.43200000	        -33.50000168	        442.22781823	        -13.38710252	          0.99475176	          0.00000000	          0.12872088	          0.00000000	          0.00000000	          0.00000000	          0.00000000	          0.00000000	          0.00000000	          0.00000000	          1.33712871	          0.00000000	          0.00000000	          0.00000000	          0.00000000	
          1.43600000	        -28.08902194	        441.16217235	        -12.37133492	          0.99523571	          0.00000000	          0.12861312	          0.00000000	          0.00000000	          0.00000000	          0.00000000	          0.00000000	          0.00000000	          0.00000000	          1.11800946	          0.00000000	          0.00000000	          0.00000000	          0.00000000	
          1.44000000	        -24.18165230	        440.37169298	        -10.62836208	          0.99580480	          0.00000000	          0.12845634	          0.00000000	          0.00000000	          0.00000000	          0.00000000	          0.00000000	          0.00000000	          0.00000000	          1.00202793	          0.00000000	          0.00000000	          0.00000000	          0.00000000	
          1.44400000	        -22.52786742	        439.78712048	         -8.35064641	          0.99660801	          0.00000000	          0.12824095	          0.00000000	          0.00000000	          0.00000000	          0.00000000	          0.00000000	          0.00000000	          0.00000000	          1.02785138	          0.00000000	          0.00000000	          0.00000000	          0.00000000	
          1.44800000	        -23.27410328	        439.38115242	         -5.82434982	          0.99767977	          0.00000000	          0.12796265	          0.00000000	          0.00000000	          0.00000000	          0.00000000	          0.00000000	          0.00000000	          0.00000000	          1.19995308	          0.00000000	          0.00000000	          0.00000000	          0.00000000	
